<svg width="130" height="26" viewBox="0 0 130 26" fill="none" xmlns="http://www.w3.org/2000/svg">
<path d="M68.2884 13.6438H64.9416V20.0799H63.0537V5.06225H68.2884C71.0989 5.06225 72.7508 6.73565 72.7508 9.35302C72.7508 11.9704 71.0989 13.6438 68.2884 13.6438ZM68.3957 11.8417C69.9404 11.8417 70.7985 10.9406 70.7985 9.35302C70.7985 7.76543 69.9404 6.86437 68.3957 6.86437H64.9416V11.8417H68.3957Z" fill="black"/>
<path d="M79.8762 9.41738L79.5115 11.0264C79.1253 10.8333 78.6962 10.7261 78.2457 10.7261C76.7654 10.7261 75.2207 12.4638 75.2207 15.9822V20.0799H73.4186V9.2672H75.2207V11.1122C75.8643 9.91081 77.1944 9.09557 78.3959 9.09557C78.9966 9.09557 79.5544 9.24575 79.8762 9.41738Z" fill="black"/>
<path d="M79.1157 14.6736C79.1157 11.7344 81.068 9.09557 84.3076 9.09557C87.5471 9.09557 89.4994 11.7344 89.4994 14.6736C89.4994 17.6127 87.5471 20.2515 84.3076 20.2515C81.068 20.2515 79.1157 17.6127 79.1157 14.6736ZM80.9608 14.6736C80.9608 16.6688 82.0978 18.6211 84.3076 18.6211C86.5173 18.6211 87.6543 16.6688 87.6543 14.6736C87.6543 12.6784 86.5173 10.7261 84.3076 10.7261C82.0978 10.7261 80.9608 12.6784 80.9608 14.6736Z" fill="black"/>
<path d="M89.1543 10.8977V9.2672H91.0208V6.02768L92.8229 4.89062V9.2672H95.6548V10.8977H92.8229V16.8404C92.8229 17.9989 93.3592 18.6211 94.2603 18.6211C94.7323 18.6211 95.097 18.5352 95.4831 18.2778L95.9122 19.8439C95.3973 20.1443 94.7752 20.2515 94.153 20.2515C92.3294 20.2515 91.0208 19.1359 91.0208 16.6902V10.8977H89.1543Z" fill="black"/>
<path d="M95.7651 14.6736C95.7651 11.7344 97.7174 9.09557 100.957 9.09557C104.196 9.09557 106.149 11.7344 106.149 14.6736C106.149 17.6127 104.196 20.2515 100.957 20.2515C97.7174 20.2515 95.7651 17.6127 95.7651 14.6736ZM97.6101 14.6736C97.6101 16.6688 98.7471 18.6211 100.957 18.6211C103.167 18.6211 104.304 16.6688 104.304 14.6736C104.304 12.6784 103.167 10.7261 100.957 10.7261C98.7471 10.7261 97.6101 12.6784 97.6101 14.6736Z" fill="black"/>
<path d="M114.174 16.6259L115.74 17.2695C114.86 19.2861 113.444 20.2515 111.213 20.2515C107.909 20.2515 106.3 17.5698 106.3 14.6736C106.3 11.7773 107.909 9.09557 111.213 9.09557C113.444 9.09557 114.86 10.061 115.74 12.0776L114.174 12.7213C113.616 11.4126 112.693 10.7261 111.213 10.7261C109.11 10.7261 108.145 12.5067 108.145 14.6736C108.145 16.8404 109.11 18.6211 111.213 18.6211C112.693 18.6211 113.616 17.9345 114.174 16.6259Z" fill="black"/>
<path d="M115.997 14.6736C115.997 11.7344 117.949 9.09557 121.189 9.09557C124.428 9.09557 126.381 11.7344 126.381 14.6736C126.381 17.6127 124.428 20.2515 121.189 20.2515C117.949 20.2515 115.997 17.6127 115.997 14.6736ZM117.842 14.6736C117.842 16.6688 118.979 18.6211 121.189 18.6211C123.399 18.6211 124.536 16.6688 124.536 14.6736C124.536 12.6784 123.399 10.7261 121.189 10.7261C118.979 10.7261 117.842 12.6784 117.842 14.6736Z" fill="black"/>
<path d="M127.262 4.89062H129.065V20.0799H127.262V4.89062Z" fill="black"/>
<path d="M31.4662 7.61526L29.2135 9.05266C28.6343 7.93706 28.0121 7.46508 27.1325 7.46508C26.3173 7.46508 25.6951 8.04433 25.6951 8.83812C25.6951 11.4555 32.1098 11.1122 32.1098 15.5746C32.1098 18.5138 30.179 20.2515 27.3042 20.2515C24.5795 20.2515 22.6058 18.3422 22.1338 16.0466L24.3864 14.6307C24.837 16.2397 25.738 17.6771 27.3685 17.6771C28.527 17.6771 29.3208 17.0978 29.3208 15.7248C29.3208 13.2362 23.0348 13.7296 23.0348 8.96685C23.0348 6.69274 24.7726 4.89062 27.1325 4.89062C29.1277 4.89062 30.6509 5.8775 31.4662 7.61526Z" fill="black"/>
<path d="M32.5228 4.89062H35.1831V20.0799H32.5228V4.89062Z" fill="black"/>
<path d="M38.3022 12.614L36.0496 12.0991C36.3929 10.3184 37.959 9.09557 40.1687 9.09557C42.7432 9.09557 44.7169 10.1683 44.7169 13.6223V20.0799H42.5286L42.2497 18.7069C41.4989 19.6294 40.4691 20.2515 38.9244 20.2515C37.0794 20.2515 35.642 19.1145 35.642 16.9691C35.642 14.8237 37.5299 13.4292 40.2545 13.4292H42.0567V12.9573C42.0567 11.7558 41.1556 11.3697 40.1687 11.3697C39.4178 11.3697 38.6455 11.6057 38.3022 12.614ZM38.431 16.9262C38.431 17.4411 38.7957 17.9774 39.5466 17.9774C40.7694 17.9774 42.0567 17.1407 42.0567 15.7462V15.5317H40.276C39.1389 15.5317 38.431 15.9608 38.431 16.9262Z" fill="black"/>
<path d="M51.2074 17.72L51.8295 19.8654C51.2288 20.1443 50.6496 20.2515 50.0703 20.2515C47.6246 20.2515 46.1014 18.9429 46.1014 16.2611V11.5413H44.428V9.2672H46.1014V6.56402L48.7616 4.89062V9.2672H51.615V11.5413H48.7616V16.2182C48.7616 17.5484 49.2765 17.9774 50.1776 17.9774C50.5423 17.9774 50.8427 17.9131 51.2074 17.72Z" fill="black"/>
<path d="M61.5635 14.4376V15.5317H54.1191C54.1834 16.7331 55.0201 17.9774 56.6721 17.9774C57.8949 17.9774 58.6458 17.4196 59.2894 16.304L61.4348 17.0978C60.5981 19.0072 59.1393 20.2515 56.5219 20.2515C52.8104 20.2515 51.3301 17.2266 51.3301 14.6736C51.3301 12.1206 52.8104 9.09557 56.5219 9.09557C60.1261 9.09557 61.5635 12.0776 61.5635 14.4376ZM56.5219 11.3697C55.1703 11.3697 54.3765 12.3995 54.1834 13.4292H58.8389C58.6029 12.3565 57.9378 11.3697 56.5219 11.3697Z" fill="black"/>
<path d="M17.5381 19.0996L12.3164 25.0381H0.904297V16.6562H9.15625V13.0078H17.5381V19.0996ZM9.15625 0.617188H17.3232V8.99902H9.15625V13.0078H0.904297V7.53125L7.00391 0.59375H9.15625V0.617188Z" fill="#0A0A0A"/>
</svg>
